<svg xmlns="http://www.w3.org/2000/svg" width="11.397" height="14.1" viewBox="0 0 11.397 14.1">
  <path id="Cart" d="M10.494,3.166a.448.448,0,0,0-.446-.41H8.468A2.829,2.829,0,0,0,5.652.125c-.044,0-.088,0-.132,0A2.81,2.81,0,0,0,2.834,2.756H1.246a.45.45,0,0,0-.447.41l-.8,9V12.2a2.059,2.059,0,0,0,2.046,1.921c.037,0,.075,0,.113,0H9.132c.039,0,.076,0,.114,0a2.057,2.057,0,0,0,2.048-1.914.15.15,0,0,0,0-.051ZM3.274,5.214a.451.451,0,0,0,.451-.451V3.66H7.567v1.1a.451.451,0,0,0,.9,0V3.66H9.632l.762,8.549a1.166,1.166,0,0,1-1.252,1.012H2.154a1.161,1.161,0,0,1-1.252-1L1.66,3.66H2.824v1.1A.451.451,0,0,0,3.274,5.214Zm.456-2.458A1.934,1.934,0,0,1,5.648.945,1.91,1.91,0,0,1,7.565,2.756Z" transform="translate(0.05 -0.075)" fill="#2c2c2c" stroke="#2c2c2c" stroke-width="0.1"/>
</svg>
