<svg xmlns="http://www.w3.org/2000/svg" width="12" height="18" viewBox="0 0 12 18">
  <g id="fi-rr-smartphone" transform="translate(-4)">
    <path id="Path_1667" data-name="Path 1667" d="M12.25,0H7.75A3.754,3.754,0,0,0,4,3.75v10.5A3.754,3.754,0,0,0,7.75,18h4.5A3.754,3.754,0,0,0,16,14.25V3.75A3.754,3.754,0,0,0,12.25,0ZM7.75,1.5h4.5A2.25,2.25,0,0,1,14.5,3.75V12h-9V3.75A2.25,2.25,0,0,1,7.75,1.5Zm4.5,15H7.75A2.25,2.25,0,0,1,5.5,14.25V13.5h9v.75A2.25,2.25,0,0,1,12.25,16.5Z" fill="#ff9f43"/>
    <circle id="Ellipse_16" data-name="Ellipse 16" cx="1" cy="1" r="1" transform="translate(9 14)" fill="#ff9f43"/>
  </g>
</svg>
