<svg xmlns="http://www.w3.org/2000/svg" width="18" height="15" viewBox="0 0 18 15">
  <path id="fi-rr-envelope" d="M14.25,1H3.75A3.6,3.6,0,0,0,0,4.409v8.182A3.6,3.6,0,0,0,3.75,16h10.5A3.6,3.6,0,0,0,18,12.591V4.409A3.6,3.6,0,0,0,14.25,1ZM3.75,2.364h10.5A2.259,2.259,0,0,1,16.335,3.65L10.592,8.872a2.418,2.418,0,0,1-3.183,0L1.665,3.65A2.259,2.259,0,0,1,3.75,2.364Zm10.5,12.273H3.75A2.155,2.155,0,0,1,1.5,12.591V5.432l4.848,4.4a4.026,4.026,0,0,0,5.3,0l4.848-4.4v7.159A2.155,2.155,0,0,1,14.25,14.636Z" transform="translate(0 -1)" fill="#ff5e57"/>
</svg>
