<svg xmlns="http://www.w3.org/2000/svg" width="13.5" height="18" viewBox="0 0 13.5 18">
  <g id="fi-rr-user" transform="translate(-3)">
    <path id="Path_1665" data-name="Path 1665" d="M10.5,9A4.5,4.5,0,1,0,6,4.5,4.5,4.5,0,0,0,10.5,9Zm0-7.5a3,3,0,1,1-3,3,3,3,0,0,1,3-3Z" transform="translate(-0.75)" fill="#6c63ff"/>
    <path id="Path_1666" data-name="Path 1666" d="M9.75,14A6.758,6.758,0,0,0,3,20.75a.75.75,0,0,0,1.5,0,5.25,5.25,0,0,1,10.5,0,.75.75,0,0,0,1.5,0A6.757,6.757,0,0,0,9.75,14Z" transform="translate(0 -3.5)" fill="#6c63ff"/>
  </g>
</svg>
