<svg xmlns="http://www.w3.org/2000/svg" width="18.3" height="18.3" viewBox="0 0 18.3 18.3">
  <g id="sex" transform="translate(0.15 0.15)">
    <path id="Path_1669" data-name="Path 1669" d="M9.544,4.78A4.772,4.772,0,1,0,4.261,9.5v3.192H2.677a.527.527,0,1,0,0,1.054H4.261v1.582a.528.528,0,0,0,1.057,0V13.743H6.9a.527.527,0,1,0,0-1.054H5.318V9.5A4.755,4.755,0,0,0,9.544,4.78Zm-8.487,0A3.716,3.716,0,1,1,4.79,8.471,3.734,3.734,0,0,1,1.057,4.78Z" fill="#00a5ff" stroke="#00a5ff" stroke-width="0.3"/>
    <path id="Path_1670" data-name="Path 1670" d="M246.283,67.355V62.8l1.211,1.209a.528.528,0,0,0,.747-.746l-2.113-2.109a.529.529,0,0,0-.747,0l-2.113,2.109a.528.528,0,0,0,.747.746l1.211-1.209v4.556a4.763,4.763,0,0,0,.528,9.5,4.761,4.761,0,0,0,.528-9.5Zm-.528,8.442a3.708,3.708,0,1,1,3.733-3.726A3.716,3.716,0,0,1,245.754,75.8Z" transform="translate(-232.544 -58.851)" fill="#00a5ff" stroke="#00a5ff" stroke-width="0.3"/>
  </g>
</svg>
