<svg xmlns="http://www.w3.org/2000/svg" width="140" height="138.663" viewBox="0 0 140 138.663">
  <g id="My_password_Image" data-name="My password Image" transform="translate(-23.857 -45.43)">
    <g id="freepik--Padlock--inject-2" transform="translate(26.953 53.899)">
      <path id="Path_1693" data-name="Path 1693" d="M60.583,72.837A11.527,11.527,0,0,0,54.29,87.853L61.438,105.3l3.189-1.311L57.483,86.539a8.047,8.047,0,1,1,14.895-6.1l3.205-1.314a11.52,11.52,0,0,0-15-6.29Z" transform="translate(-45.931 -71.983)" fill="#00a5ff"/>
      <g id="Group_133" data-name="Group 133" transform="translate(7.503)" opacity="0.3">
        <path id="Path_1694" data-name="Path 1694" d="M60.583,72.837A11.527,11.527,0,0,0,54.29,87.853L61.438,105.3l3.189-1.311L57.483,86.539a8.047,8.047,0,1,1,14.895-6.1l3.205-1.314a11.52,11.52,0,0,0-15-6.29Z" transform="translate(-53.433 -71.983)"/>
      </g>
      <rect id="Rectangle_166" data-name="Rectangle 166" width="31.03" height="19.909" rx="5.81" transform="translate(8.627 27.07) rotate(-22.27)" fill="#00a5ff"/>
      <g id="Group_134" data-name="Group 134" transform="translate(23.172 25.4)" opacity="0.5">
        <path id="Path_1695" data-name="Path 1695" d="M107.56,153.24a2.593,2.593,0,1,0-2.111,3.55l1.467,3.588,1.311-.536-1.47-3.588A2.583,2.583,0,0,0,107.56,153.24Z" transform="translate(-102.563 -151.62)"/>
      </g>
      <path id="Path_1696" data-name="Path 1696" d="M71.154,177.874c-.067.029-1.378-3.024-2.928-6.813s-2.759-6.883-2.692-6.912,1.378,3.024,2.928,6.816S71.218,177.848,71.154,177.874Z" transform="translate(-54.17 -134.753)" fill="#fafafa"/>
      <path id="Path_1697" data-name="Path 1697" d="M102.337,157.434a.884.884,0,0,1-.344-.045,3.235,3.235,0,0,1-.877-.38,3.63,3.63,0,0,1-.871-5.537,3.034,3.034,0,0,1,.718-.638.865.865,0,0,1,.319-.15,8.268,8.268,0,0,0-.893.89,3.6,3.6,0,0,0,.829,5.272,8.407,8.407,0,0,0,1.12.587Z" transform="translate(-77.188 -125.582)" fill="#fafafa"/>
      <path id="Path_1698" data-name="Path 1698" d="M42.733,180.743l.156-.453.3.376a1.981,1.981,0,0,0,.919.638l.453.156-.376.3a2.022,2.022,0,0,0-.638.919l-.153.462-.319-.373a2.012,2.012,0,0,0-.922-.638l-.45-.156.373-.3A2.022,2.022,0,0,0,42.733,180.743Z" transform="translate(-37.94 -145.746)" fill="#00a5ff"/>
      <path id="Path_1699" data-name="Path 1699" d="M91.106,125.362l.089-.262.172.217a1.177,1.177,0,0,0,.536.389l.262.089-.217.175a1.158,1.158,0,0,0-.38.533l-.089.262-.182-.23a1.129,1.129,0,0,0-.533-.376l-.265-.092.22-.172a1.174,1.174,0,0,0,.386-.533Z" transform="translate(-71.175 -108.159)" fill="#00a5ff"/>
      <path id="Path_1700" data-name="Path 1700" d="M31.639,131.242l.262-.762.5.638a3.342,3.342,0,0,0,1.544,1.091l.759.262-.638.5a3.371,3.371,0,0,0-1.094,1.544l-.262.759-.5-.638a3.349,3.349,0,0,0-1.544-1.094l-.759-.262.638-.5A3.374,3.374,0,0,0,31.639,131.242Z" transform="translate(-29.91 -111.823)" fill="#00a5ff"/>
    </g>
    <line id="Line_19" data-name="Line 19" x2="140" transform="translate(23.857 183.593)" fill="none" stroke="#95afc0" stroke-width="1"/>
    <g id="freepik--Device--inject-2" transform="translate(59.063 45.43)">
      <path id="Path_1701" data-name="Path 1701" d="M188.64,183.51l-47.079-.029A10.239,10.239,0,0,1,131.31,173.26l.022-117.613A10.239,10.239,0,0,1,141.6,45.43l47.079.025a10.239,10.239,0,0,1,10.251,10.221L198.9,173.292A10.239,10.239,0,0,1,188.64,183.51Z" transform="translate(-131.31 -45.43)" fill="#2c2c2c"/>
      <path id="Path_1702" data-name="Path 1702" d="M195.282,58.559H186.16a2.26,2.26,0,0,0-2.217,2.307V62.5a2.263,2.263,0,0,1-2.217,2.307H163.936A2.266,2.266,0,0,1,161.7,62.5V60.85a2.263,2.263,0,0,0-2.217-2.31H148.3a7.172,7.172,0,0,0-7.189,7.136l-.022,114.772a7.169,7.169,0,0,0,7.179,7.155l46.987.029a7.166,7.166,0,0,0,7.186-7.155l.022-114.769a7.169,7.169,0,0,0-7.183-7.149Z" transform="translate(-137.971 -54.359)" fill="#fff"/>
      <path id="Path_1703" data-name="Path 1703" d="M219.775,435.343a.9.9,0,1,1-.912-.893A.9.9,0,0,1,219.775,435.343Z" transform="translate(-190.33 -310.866)" fill="#2c2c2c"/>
      <path id="Path_1704" data-name="Path 1704" d="M235.615,435.213a.9.9,0,1,1-.909-.893A.9.9,0,0,1,235.615,435.213Z" transform="translate(-201.118 -310.778)" fill="#2c2c2c"/>
      <path id="Path_1705" data-name="Path 1705" d="M251.465,435.093a.9.9,0,1,1-.909-.893.9.9,0,0,1,.909.893Z" transform="translate(-211.913 -310.696)" fill="#2c2c2c"/>
      <path id="Path_1710" data-name="Path 1710" d="M189.3,190.359c0,1.107-.829,1.8-2.156,1.8h-1v1.365H185v-4.96h2.146C188.467,188.56,189.3,189.249,189.3,190.359Zm-1.164,0c0-.545-.354-.864-1.056-.864h-.934v1.722h.934C187.778,191.217,188.132,190.9,188.132,190.359Z" transform="translate(-167.876 -143.078)" fill="#2c2c2c"/>
      <path id="Path_1711" data-name="Path 1711" d="M203.51,193.672v2.175h-1.033v-.475a1.254,1.254,0,0,1-1.161.533c-.893,0-1.426-.494-1.426-1.155s.475-1.142,1.636-1.142h.88c0-.475-.284-.75-.88-.75a1.828,1.828,0,0,0-1.1.354l-.4-.772a2.928,2.928,0,0,1,1.646-.462C202.837,191.985,203.51,192.517,203.51,193.672Zm-1.1.973v-.389h-.759c-.517,0-.679.188-.679.443s.233.475.622.475a.813.813,0,0,0,.816-.529Z" transform="translate(-178.017 -145.408)" fill="#2c2c2c"/>
      <path id="Path_1712" data-name="Path 1712" d="M213.22,195.493l.37-.794a2.59,2.59,0,0,0,1.324.37c.51,0,.7-.134.7-.348,0-.638-2.3,0-2.3-1.509,0-.724.638-1.234,1.764-1.234a3.113,3.113,0,0,1,1.467.335l-.367.785a2.233,2.233,0,0,0-1.1-.284c-.494,0-.708.156-.708.357,0,.638,2.3.019,2.3,1.521,0,.708-.66,1.212-1.8,1.212A3.256,3.256,0,0,1,213.22,195.493Z" transform="translate(-187.095 -145.408)" fill="#2c2c2c"/>
      <path id="Path_1713" data-name="Path 1713" d="M225,195.494l.367-.794a2.613,2.613,0,0,0,1.327.37c.51,0,.7-.134.7-.348,0-.638-2.3,0-2.3-1.509,0-.724.638-1.234,1.764-1.234a3.123,3.123,0,0,1,1.467.335l-.37.785a2.2,2.2,0,0,0-1.1-.284c-.5,0-.708.156-.708.357,0,.638,2.3.019,2.3,1.521,0,.708-.66,1.212-1.8,1.212A3.246,3.246,0,0,1,225,195.494Z" transform="translate(-195.118 -145.408)" fill="#2c2c2c"/>
      <path id="Path_1714" data-name="Path 1714" d="M242.795,192.16l-1.381,3.827h-1.062l-.858-2.367-.887,2.367h-1.062l-1.375-3.827h1.043l.9,2.58.935-2.58h.935l.909,2.58.928-2.58Z" transform="translate(-202.725 -145.532)" fill="#2c2c2c"/>
      <path id="Path_1715" data-name="Path 1715" d="M257.35,193.945a2.1,2.1,0,1,1,2.1,1.962A1.962,1.962,0,0,1,257.35,193.945Zm3.068,0a.976.976,0,1,0-.973,1.056.957.957,0,0,0,.982-1.056Z" transform="translate(-217.15 -145.409)" fill="#2c2c2c"/>
      <path id="Path_1716" data-name="Path 1716" d="M275.157,191.989v1.021h-.249a.931.931,0,0,0-1.014,1.062v1.8h-1.1v-3.827h1.056v.5A1.531,1.531,0,0,1,275.157,191.989Z" transform="translate(-227.666 -145.412)" fill="#2c2c2c"/>
      <path id="Path_1717" data-name="Path 1717" d="M285.5,187.63v5.256h-1.065v-.437a1.47,1.47,0,0,1-1.19.494,1.965,1.965,0,0,1,0-3.926,1.458,1.458,0,0,1,1.139.462v-1.85Zm-1.084,3.352a.976.976,0,1,0-.957,1.056.957.957,0,0,0,.957-1.056Z" transform="translate(-233.501 -142.444)" fill="#2c2c2c"/>
      <path id="Path_1721" data-name="Path 1721" d="M164.616,257.425l1,.539-.45.753-1.008-.6.019,1.11h-.861v-1.119l-1.011.606-.431-.749.989-.542-1-.552.44-.75,1.011.6V255.61h.861l-.019,1.116,1.008-.6.45.75Z" transform="translate(-152.116 -188.819)" fill="#00a5ff"/>
      <path id="Path_1722" data-name="Path 1722" d="M200.563,257.425l1,.539-.45.753-1-.6v1.123h-.864v-1.119l-1.008.606-.418-.762,1.014-.542-1-.552.44-.75,1.008.6V255.61h.826l-.019,1.116,1.008-.6.45.75Z" transform="translate(-176.607 -188.819)" fill="#00a5ff"/>
      <path id="Path_1723" data-name="Path 1723" d="M235.523,257.432l1,.539-.45.753-1.008-.6.019,1.123h-.861v-1.12l-1.011.606-.431-.762,1-.539-1-.552.44-.75,1.011.6V255.62h.852l-.019,1.116,1.008-.6.45.75Z" transform="translate(-200.417 -188.825)" fill="#00a5ff"/>
      <path id="Path_1724" data-name="Path 1724" d="M269.393,257.432l1,.539-.44.753-1.008-.6.019,1.11H268.1v-1.119l-1.008.606-.443-.75,1-.539-1-.552.44-.75,1.008.6V255.62h.861l-.019,1.116,1.008-.6.45.75Z" transform="translate(-223.484 -188.825)" fill="#00a5ff"/>
      <path id="Path_1725" data-name="Path 1725" d="M303,257.432l1,.542-.45.753-1.008-.6.016,1.11H301.7v-1.119l-1.008.606-.434-.753,1-.539-1-.552.44-.75,1.008.6V255.62h.861l-.016,1.116,1.008-.6.45.75Z" transform="translate(-246.374 -188.825)" fill="#00a5ff"/>
      <path id="Path_1726" data-name="Path 1726" d="M160.937,255.136H156.1a2.258,2.258,0,0,1-2.255-2.255V244.3a2.255,2.255,0,0,1,2.255-2.252h4.832a2.255,2.255,0,0,1,2.255,2.252v8.576a2.258,2.258,0,0,1-2.255,2.258ZM156.1,242.209a2.1,2.1,0,0,0-2.1,2.092v8.576a2.1,2.1,0,0,0,2.1,2.1h4.832a2.1,2.1,0,0,0,2.1-2.1V244.3a2.1,2.1,0,0,0-2.1-2.092Z" transform="translate(-146.661 -179.585)" fill="#263238" stroke="#263238" stroke-width="0.1"/>
      <path id="Path_1727" data-name="Path 1727" d="M196.1,255.129h-4.832A2.258,2.258,0,0,1,189,252.871v-8.58a2.255,2.255,0,0,1,2.255-2.252h4.832a2.255,2.255,0,0,1,2.255,2.252v8.58a2.258,2.258,0,0,1-2.242,2.258ZM191.268,242.2a2.1,2.1,0,0,0-2.1,2.092v8.576a2.1,2.1,0,0,0,2.1,2.1H196.1a2.1,2.1,0,0,0,2.1-2.1v-8.58a2.1,2.1,0,0,0-2.1-2.092Z" transform="translate(-170.6 -179.578)" fill="#263238" stroke="#263238" stroke-width="0.1"/>
      <path id="Path_1728" data-name="Path 1728" d="M230.35,255.136h-4.835a2.258,2.258,0,0,1-2.255-2.255V244.3a2.255,2.255,0,0,1,2.255-2.252h4.835A2.255,2.255,0,0,1,232.6,244.3v8.576A2.255,2.255,0,0,1,230.35,255.136Zm-4.835-12.927a2.1,2.1,0,0,0-2.1,2.092v8.576a2.1,2.1,0,0,0,2.1,2.1h4.835a2.1,2.1,0,0,0,2.092-2.1V244.3a2.092,2.092,0,0,0-2.092-2.092Z" transform="translate(-193.933 -179.585)" fill="#263238" stroke="#263238" stroke-width="0.1"/>
      <path id="Path_1729" data-name="Path 1729" d="M264.96,255.136h-4.835a2.258,2.258,0,0,1-2.255-2.255V244.3a2.255,2.255,0,0,1,2.255-2.252h4.835a2.255,2.255,0,0,1,2.252,2.252v8.576A2.255,2.255,0,0,1,264.96,255.136Zm-4.835-12.927a2.1,2.1,0,0,0-2.1,2.092v8.576a2.1,2.1,0,0,0,2.1,2.1h4.835a2.1,2.1,0,0,0,2.092-2.1V244.3a2.092,2.092,0,0,0-2.092-2.092Z" transform="translate(-217.504 -179.585)" fill="#263238" stroke="#263238" stroke-width="0.1"/>
      <path id="Path_1730" data-name="Path 1730" d="M298.567,255.136h-4.832a2.258,2.258,0,0,1-2.255-2.255V244.3a2.255,2.255,0,0,1,2.255-2.252h4.832a2.255,2.255,0,0,1,2.255,2.252v8.576a2.258,2.258,0,0,1-2.255,2.258Zm-4.832-12.927a2.1,2.1,0,0,0-2.1,2.092v8.576a2.1,2.1,0,0,0,2.1,2.1h4.832a2.1,2.1,0,0,0,2.1-2.1V244.3a2.1,2.1,0,0,0-2.1-2.092Z" transform="translate(-240.395 -179.585)" fill="#263238" stroke="#263238" stroke-width="0.1"/>
      <rect id="Rectangle_167" data-name="Rectangle 167" width="54.154" height="9.485" rx="4.743" transform="translate(7.266 85.828)" fill="#00a5ff"/>
      <path id="Path_1731" data-name="Path 1731" d="M217.55,324.45h1.458a1.6,1.6,0,1,1,0,3.189H217.55Zm1.419,2.6a1,1,0,1,0,0-1.99h-.679v1.99Z" transform="translate(-190.044 -235.781)" fill="#fff"/>
      <path id="Path_1732" data-name="Path 1732" d="M228.685,327.572a1.359,1.359,0,1,1,1.359,1.276,1.276,1.276,0,0,1-1.359-1.276Zm1.987,0a.638.638,0,1,0-.638.638A.638.638,0,0,0,230.672,327.572Z" transform="translate(-197.626 -236.926)" fill="#fff"/>
      <path id="Path_1733" data-name="Path 1733" d="M241.21,327.772v1.41H240.5v-1.3c0-.4-.185-.58-.5-.58a.586.586,0,0,0-.59.663v1.218h-.714v-2.465h.683v.29a1.081,1.081,0,0,1,.816-.319A.958.958,0,0,1,241.21,327.772Z" transform="translate(-204.442 -237.306)" fill="#fff"/>
      <path id="Path_1734" data-name="Path 1734" d="M250.716,328.11H248.85a.66.66,0,0,0,.7.494.826.826,0,0,0,.619-.239l.383.415a1.441,1.441,0,0,1-2.427-.877,1.254,1.254,0,0,1,1.317-1.276,1.218,1.218,0,0,1,1.276,1.276A1.453,1.453,0,0,1,250.716,328.11Zm-1.875-.408h1.215a.616.616,0,0,0-1.215,0Z" transform="translate(-210.87 -237.264)" fill="#fff"/>
      <circle id="Ellipse_26" data-name="Ellipse 26" cx="9.584" cy="9.584" r="9.584" transform="translate(24.224 21.612)" fill="#00a5ff"/>
      <path id="Path_1735" data-name="Path 1735" d="M231.659,132.152H231.5v-.893a1.869,1.869,0,0,1,3.738,0v.727h-.159v-.727a1.71,1.71,0,0,0-3.419,0Z" transform="translate(-199.545 -102.708)" fill="#fff" stroke="#fff" stroke-width="0.2"/>
      <path id="Path_1736" data-name="Path 1736" d="M232.93,144.131h-4.752a.791.791,0,0,1-.788-.788v-4.755a.791.791,0,0,1,.788-.788h4.752a.791.791,0,0,1,.788.788v4.755a.791.791,0,0,1-.788.788Zm-4.752-6.172a.638.638,0,0,0-.638.638v4.755a.638.638,0,0,0,.638.638h4.752a.638.638,0,0,0,.638-.638v-4.765a.638.638,0,0,0-.638-.638Z" transform="translate(-196.746 -108.449)" fill="#fff" stroke="#fff" stroke-width="0.2"/>
      <path id="Path_1737" data-name="Path 1737" d="M235.786,145.023a.746.746,0,1,1,.746-.746A.746.746,0,0,1,235.786,145.023Zm0-1.33a.243.243,0,1,0,0-.013Z" transform="translate(-201.956 -112.354)" fill="#fff" stroke="#fff" stroke-width="0.2"/>
      <rect id="Rectangle_168" data-name="Rectangle 168" width="0.159" height="1.346" transform="translate(33.728 32.552)" fill="#fff" stroke="#fff" stroke-width="0.2"/>
    </g>
    <g id="freepik--Plant--inject-2" transform="translate(34.939 121.695)">
      <path id="Path_1739" data-name="Path 1739" d="M64.105,304.171c3.033-4.644,2.918-11.431-.708-15.628-1.126-1.3-2.7-2.437-4.414-2.29a4.639,4.639,0,0,0-3.7,3.336,11,11,0,0,0-.035,5.234,12.992,12.992,0,0,0,2.871,6.72c1.694,1.805,3.827,3.811,6,2.628" transform="translate(-54.948 -286.192)" fill="#00a5ff"/>
      <path id="Path_1740" data-name="Path 1740" d="M66.544,393.38a6.931,6.931,0,0,0-1.933-7.878,2.892,2.892,0,0,0-2.481-.778,2.379,2.379,0,0,0-1.595,2.054,5.741,5.741,0,0,0,.456,2.714,6.752,6.752,0,0,0,2.083,3.189c1.03.765,2.475,1.505,3.483.7" transform="translate(-58.742 -353.222)" fill="#00a5ff"/>
      <path id="Path_1741" data-name="Path 1741" d="M101.989,382.987a10.043,10.043,0,0,1,5.058-10.6,4.231,4.231,0,0,1,3.748-.373,3.521,3.521,0,0,1,1.671,3.387,8.279,8.279,0,0,1-1.442,3.69,9.817,9.817,0,0,1-3.894,3.926c-1.69.8-3.952,1.407-5.141-.032" transform="translate(-86.864 -344.408)" fill="#00a5ff"/>
      <path id="Path_1742" data-name="Path 1742" d="M99.822,341.911c-1.454-4.692,1.011-10.378,5.1-13.077a4.939,4.939,0,0,1,4.315-.874,4.115,4.115,0,0,1,2.341,3.741,9.707,9.707,0,0,1-1.244,4.465,11.492,11.492,0,0,1-4.07,5.023c-1.872,1.126-4.905,2.233-6.459.714" transform="translate(-85.223 -314.462)" fill="#00a5ff"/>
      <path id="Path_1743" data-name="Path 1743" d="M91.557,402.292a.957.957,0,0,0,.045-.226c.026-.169.061-.386.1-.654.019-.143.041-.3.067-.472s.067-.36.105-.558c.077-.4.156-.858.287-1.352.061-.252.124-.514.188-.785s.163-.545.246-.836c.156-.58.389-1.183.606-1.824a31.774,31.774,0,0,1,4.146-7.744c.415-.536.788-1.062,1.186-1.512.195-.233.383-.453.561-.67l.574-.59c.341-.383.676-.7.957-.986l.405-.4.357-.319.491-.443a1.188,1.188,0,0,0,.163-.163.956.956,0,0,0-.188.134l-.517.415-.37.3-.418.389c-.3.277-.638.59-1,.957l-.561.584c-.182.214-.373.437-.571.663-.408.45-.788.976-1.212,1.512a34.287,34.287,0,0,0-2.373,3.741,33.345,33.345,0,0,0-1.805,4.047c-.214.638-.44,1.254-.59,1.844-.083.29-.159.571-.236.842s-.121.539-.179.791c-.121.5-.191.957-.258,1.365-.032.2-.064.389-.092.561s-.032.319-.048.478c-.026.268-.045.488-.061.66a.741.741,0,0,0-.01.246Z" transform="translate(-79.877 -351.928)" fill="#263238"/>
      <path id="Path_1744" data-name="Path 1744" d="M90.943,375.247a.373.373,0,0,0,0-.1,1.471,1.471,0,0,0-.019-.271c-.022-.255-.057-.6-.1-1.043-.022-.226-.048-.478-.077-.75s-.026-.577-.045-.9c-.022-.638-.086-1.378-.061-2.188v-1.276c0-.443.045-.9.067-1.378.032-.957.163-1.965.277-3.033a43.485,43.485,0,0,1,3.949-13.322c.488-.957.928-1.875,1.422-2.692.242-.411.456-.82.7-1.193l.689-1.072c.424-.7.874-1.276,1.244-1.8.191-.262.36-.507.529-.727l.472-.59.638-.823.166-.217c.035-.048.054-.073.051-.077s-.026.019-.067.064l-.179.2-.679.8-.472.59c-.172.217-.348.459-.542.718-.38.523-.839,1.1-1.276,1.789l-.7,1.068c-.242.373-.462.781-.708,1.193-.5.816-.957,1.738-1.442,2.7a42.353,42.353,0,0,0-3.964,13.37c-.112,1.072-.236,2.089-.262,3.046-.016.478-.054.941-.057,1.384s0,.871,0,1.276c0,.813.057,1.55.092,2.194.022.319.035.638.061.9s.064.523.092.753c.054.437.1.785.131,1.04.016.108.032.195.041.268a.38.38,0,0,0,.029.1Z" transform="translate(-79.158 -324.031)" fill="#263238"/>
      <path id="Path_1745" data-name="Path 1745" d="M67.12,303.859a.442.442,0,0,0,.041.086c.035.064.077.147.131.242l.517.928c.112.2.246.421.376.67l.405.816.469.938c.156.335.319.7.475,1.072s.344.772.513,1.186.319.858.5,1.308l.265.689c.08.239.163.478.246.724.163.488.319.992.507,1.505.638,2.083,1.253,4.4,1.767,6.86s.848,4.835,1.107,7,.386,4.124.431,5.773c.041.823.051,1.566.051,2.233V339a.389.389,0,0,0,0-.092,1.519,1.519,0,0,1,.019-.274c0-.262.029-.616.051-1.062s.035-1.027.035-1.681,0-1.4-.022-2.233c-.029-1.652-.175-3.614-.389-5.786a70.61,70.61,0,0,0-1.094-7.017,68.958,68.958,0,0,0-1.786-6.873l-.51-1.518c-.083-.246-.166-.488-.249-.724l-.271-.689-.517-1.308c-.172-.418-.357-.807-.526-1.186s-.319-.737-.491-1.068-.319-.638-.482-.935-.293-.561-.421-.813-.274-.462-.392-.66l-.552-.909c-.057-.1-.108-.172-.147-.233S67.123,303.856,67.12,303.859Z" transform="translate(-63.238 -298.192)" fill="#263238"/>
      <path id="Path_1746" data-name="Path 1746" d="M70.36,393.18a3.906,3.906,0,0,0,.319.568c.223.354.526.88.883,1.537s.753,1.454,1.151,2.357a28.085,28.085,0,0,1,1.116,3.014,31.052,31.052,0,0,1,.778,3.116,22.846,22.846,0,0,1,.38,2.6c.061.746.121,1.346.137,1.764a3.826,3.826,0,0,0,.054.638,4.554,4.554,0,0,0,.022-.638,17.275,17.275,0,0,0-.073-1.777,26.381,26.381,0,0,0-.341-2.618,29.889,29.889,0,0,0-.769-3.145,28.867,28.867,0,0,0-1.139-3.027c-.408-.906-.816-1.7-1.193-2.354a15.821,15.821,0,0,0-.957-1.509A4.9,4.9,0,0,0,70.36,393.18Z" transform="translate(-65.444 -359.024)" fill="#263238"/>
      <path id="Path_1747" data-name="Path 1747" d="M81.785,437.47H68.45l1.614,13.619h10.06Z" transform="translate(-64.143 -389.188)" fill="#455a64"/>
      <path id="Path_1748" data-name="Path 1748" d="M82.257,475.56l-1.132,1.47h-10.1l-1.164-1.422Z" transform="translate(-65.104 -415.129)" fill="#263238"/>
      <path id="Path_1749" data-name="Path 1749" d="M70.08,449.789c0,.054,2.768.1,6.181.1s6.178-.045,6.178-.1-2.765-.1-6.178-.1S70.08,449.744,70.08,449.789Z" transform="translate(-65.254 -397.511)" fill="#fafafa"/>
      <path id="Path_1750" data-name="Path 1750" d="M70.08,452.659c0,.054,2.768.1,6.181.1s6.178-.045,6.178-.1-2.765-.1-6.178-.1S70.08,452.6,70.08,452.659Z" transform="translate(-65.254 -399.465)" fill="#fafafa"/>
      <path id="Path_1751" data-name="Path 1751" d="M70.6,455.409c0,.057,2.67.1,5.964.1s5.964-.045,5.964-.1-2.67-.1-5.964-.1S70.6,455.355,70.6,455.409Z" transform="translate(-65.608 -401.338)" fill="#fafafa"/>
      <path id="Path_1752" data-name="Path 1752" d="M103.862,345.44a.577.577,0,0,0,0,.131c0,.1.016.223.029.37.035.341.08.8.137,1.356.121,1.145.3,2.727.5,4.465a.562.562,0,0,0,.022.195v.061h.061c1.713.025,3.253.041,4.366.048h1.8a.488.488,0,0,0-.121-.016l-.357-.016-1.317-.042c-1.113-.032-2.654-.064-4.37-.089l.067.057a.6.6,0,0,0-.022-.195c-.2-1.745-.4-3.323-.542-4.465-.073-.555-.134-1.011-.182-1.352-.019-.147-.038-.268-.054-.367a.374.374,0,0,0-.019-.14Z" transform="translate(-88.259 -326.511)" fill="#263238"/>
      <path id="Path_1753" data-name="Path 1753" d="M113.368,332.67a.414.414,0,0,0,0,.134v1.789c.019,1.186.051,2.826.1,4.634v.284h.07a41.143,41.143,0,0,1,4.484-.1c.571,0,1.033.042,1.352.057h.494a.48.48,0,0,1-.124-.026l-.367-.041c-.319-.032-.778-.07-1.352-.1a35.864,35.864,0,0,0-4.5.061l.073.067v-.214c-.045-1.812-.092-3.448-.134-4.634-.022-.577-.041-1.052-.054-1.4a1.927,1.927,0,0,0-.022-.383A.672.672,0,0,0,113.368,332.67Z" transform="translate(-94.732 -317.814)" fill="#263238"/>
      <path id="Path_1754" data-name="Path 1754" d="M122.055,328.32a2.835,2.835,0,0,0-.083.392c-.051.274-.115.638-.2,1.072-.172.906-.443,2.153-.823,3.508l-.041.143.137-.064.159-.08a11.583,11.583,0,0,1,3.559-1.03c.475-.057.861-.08,1.126-.089a2.125,2.125,0,0,0,.415-.022.319.319,0,0,0-.105,0c-.07,0-.175-.016-.319-.016a9.318,9.318,0,0,0-1.135.048,10.8,10.8,0,0,0-3.6,1.011l-.163.08.1.077a34.552,34.552,0,0,0,.788-3.537c.077-.456.128-.826.156-1.081A1.946,1.946,0,0,0,122.055,328.32Z" transform="translate(-99.872 -314.851)" fill="#263238"/>
      <path id="Path_1755" data-name="Path 1755" d="M65.46,400.177c0,.019.389-.019,1.011-.045a17.1,17.1,0,0,1,2.424.08c.191.019.38.045.558.07h.064v-.061c.147-.807.265-1.518.348-2.028a5.884,5.884,0,0,0,.105-.823,5.42,5.42,0,0,0-.191.807c-.105.507-.242,1.215-.392,2.019l.077-.054c-.182-.026-.37-.051-.565-.07a13.677,13.677,0,0,0-2.443-.041c-.319.026-.565.057-.737.083A1.125,1.125,0,0,0,65.46,400.177Z" transform="translate(-62.107 -361.878)" fill="#263238"/>
      <path id="Path_1756" data-name="Path 1756" d="M61.52,391.652c0,.022.373-.064.976-.14a10.577,10.577,0,0,1,2.367-.022l.418.051h.07v-.067c.083-.829.15-1.566.195-2.092a5.449,5.449,0,0,0,.041-.852,6.263,6.263,0,0,0-.131.842c-.067.526-.15,1.26-.239,2.086l.077-.057-.431-.045a9.187,9.187,0,0,0-2.392.064,6.867,6.867,0,0,0-.711.15A1.091,1.091,0,0,0,61.52,391.652Z" transform="translate(-59.424 -355.857)" fill="#263238"/>
      <path id="Path_1757" data-name="Path 1757" d="M58.68,316.433a.781.781,0,0,0,.134.07l.389.172,1.442.612,4.784,1.981.258.105.061.026.026-.061c.788-1.78,1.5-3.381,2.019-4.558l.593-1.378.156-.376a.794.794,0,0,0,.045-.137.711.711,0,0,0-.07.124c-.048.1-.105.22-.179.367l-.638,1.362-2.057,4.542.089-.035-.258-.105L60.7,317.2l-1.458-.574-.4-.15A.582.582,0,0,0,58.68,316.433Z" transform="translate(-57.49 -304.342)" fill="#263238"/>
      <path id="Path_1758" data-name="Path 1758" d="M55,298.6a.7.7,0,0,0,.118.086l.351.227,1.3.81,4.341,2.65.07.042.029-.077.08-.211,1.821-4.912c.22-.616.4-1.123.536-1.493l.14-.408a.526.526,0,0,0,.038-.147,1.01,1.01,0,0,0-.064.137l-.15.4c-.14.367-.338.868-.577,1.48-.478,1.276-1.132,2.992-1.856,4.9-.026.07-.054.144-.077.207l.1-.035-4.373-2.612L55.5,298.87l-.364-.2A.679.679,0,0,0,55,298.6Z" transform="translate(-54.983 -292.274)" fill="#263238"/>
      <path id="Path_1759" data-name="Path 1759" d="M56.22,289.343a1.649,1.649,0,0,0,.287.169c.188.105.459.258.788.462a13.949,13.949,0,0,1,2.414,1.891l.169.163-.057-.23c-.057-.236-.112-.488-.153-.746a8.694,8.694,0,0,1,.188-3.553,10.652,10.652,0,0,1,.341-1.036,2.333,2.333,0,0,0,.144-.373,2.463,2.463,0,0,0-.191.354,8.55,8.55,0,0,0-.386,1.027,8.353,8.353,0,0,0-.23,3.6c.041.265.1.52.159.762l.112-.064a12.838,12.838,0,0,0-2.465-1.882c-.338-.195-.616-.338-.81-.427a1.868,1.868,0,0,0-.309-.118Z" transform="translate(-55.814 -286.09)" fill="#263238"/>
      <path id="Path_1760" data-name="Path 1760" d="M103.93,390a1.734,1.734,0,0,0,.061.344c.045.22.112.539.185.935a23.208,23.208,0,0,1,.36,3.161v.061h.354c1.324.08,2.52.147,3.387.185l1.027.041a2.019,2.019,0,0,0,.376,0,1.994,1.994,0,0,0-.373-.048l-1.024-.086c-.868-.064-2.064-.143-3.384-.223l-.3-.016.064.064a19.865,19.865,0,0,0-.392-3.142c-.086-.4-.166-.714-.23-.931A1.846,1.846,0,0,0,103.93,390Z" transform="translate(-88.307 -356.858)" fill="#263238"/>
      <path id="Path_1761" data-name="Path 1761" d="M112.138,378.26a1.774,1.774,0,0,0,.022.348c.029.246.064.565.108.957.1.8.239,1.914.408,3.164v.054h.054l.427.029c1.356.093,2.577.233,3.461.348l1.046.14a2.25,2.25,0,0,0,.383.038,1.889,1.889,0,0,0-.376-.089c-.242-.051-.6-.115-1.04-.185-.88-.137-2.105-.293-3.464-.386l-.431-.029.064.057c-.172-1.247-.319-2.36-.453-3.158-.061-.38-.108-.7-.147-.941A1.594,1.594,0,0,0,112.138,378.26Z" transform="translate(-93.897 -348.863)" fill="#263238"/>
      <path id="Path_1762" data-name="Path 1762" d="M121.8,373.18c-.019,0,.064.367.156.957a16.759,16.759,0,0,1,.217,2.36v.073h.077l.223-.029a20.759,20.759,0,0,1,2.516-.15h.769a1.211,1.211,0,0,0,.281,0,1.083,1.083,0,0,0-.277-.045c-.182-.019-.443-.041-.769-.051a16.091,16.091,0,0,0-2.536.108l-.226.029.077.067a13.847,13.847,0,0,0-.258-2.373c-.061-.3-.118-.536-.163-.7A.9.9,0,0,0,121.8,373.18Z" transform="translate(-100.479 -345.403)" fill="#263238"/>
      <path id="Path_1763" data-name="Path 1763" d="M66.73,385a47.8,47.8,0,0,0,1.234,2.686,6.147,6.147,0,0,0-.51-1.41A6.23,6.23,0,0,0,66.73,385Z" transform="translate(-62.972 -353.453)" fill="#263238"/>
      <path id="Path_1764" data-name="Path 1764" d="M61.48,390.488a13.911,13.911,0,0,1,1.515.319,13.268,13.268,0,0,1,1.423.606,3.4,3.4,0,0,0-1.384-.734A3.443,3.443,0,0,0,61.48,390.488Z" transform="translate(-59.397 -357.178)" fill="#263238"/>
    </g>
  </g>
</svg>
