<svg xmlns="http://www.w3.org/2000/svg" width="13" height="11.422" viewBox="0 0 13 11.422">
  <path id="fi-rr-heart" d="M9.473,1.917A3.465,3.465,0,0,0,6.5,3.7,3.465,3.465,0,0,0,3.517,1.917,3.682,3.682,0,0,0,0,5.734C0,8.2,2.589,10.885,4.762,12.708a2.693,2.693,0,0,0,3.465,0C10.4,10.885,12.992,8.2,12.992,5.734A3.682,3.682,0,0,0,9.473,1.917ZM7.532,11.88a1.61,1.61,0,0,1-2.074,0C2.676,9.545,1.081,7.306,1.081,5.734A2.6,2.6,0,0,1,3.517,3,2.6,2.6,0,0,1,5.954,5.734a.541.541,0,1,0,1.083,0A2.6,2.6,0,0,1,9.473,3,2.6,2.6,0,0,1,11.91,5.734c0,1.572-1.6,3.811-4.378,6.143Z" transform="translate(0.005 -1.917)" fill="#2c2c2c"/>
</svg>
