<svg xmlns="http://www.w3.org/2000/svg" width="110" height="24.227" viewBox="0 0 110 24.227">
  <g id="Logo" transform="translate(-369.155 -505.901)">
    <g id="Group_2" data-name="Group 2" transform="translate(369.155 505.901)">
      <path id="Path_9" data-name="Path 9" d="M452.01,606.06h6.426l-3.81-6.06H448.2Z" transform="translate(-437.964 -587.889)" fill="#00a5ff"/>
      <path id="Path_10" data-name="Path 10" d="M372.965,559.261h6.426l-3.81-6.06h-6.426Z" transform="translate(-369.155 -547.145)" fill="#00a5ff"/>
      <path id="Path_11" data-name="Path 11" d="M405,652.86h-6.426l3.81-6.06h6.426Z" transform="translate(-394.764 -628.633)" fill="#00a5ff"/>
      <path id="Path_12" data-name="Path 12" d="M425.218,512.462h-6.426l3.81-6.06h6.426Z" transform="translate(-412.364 -506.402)" fill="#00a5ff"/>
    </g>
    <g id="Group_3" data-name="Group 3" transform="translate(392.232 507.268)">
      <path id="Path_13" data-name="Path 13" d="M566.708,523.02h-1.936a4.059,4.059,0,0,1-2.04-.364,1.223,1.223,0,0,1-.537-1.12V519.7a1.537,1.537,0,0,1,.695-1.441,6.676,6.676,0,0,1,3-.44,30.448,30.448,0,0,1,4.3.42l.149.023v-2.079l-.115-.013a37.9,37.9,0,0,0-4.16-.274c-2.431,0-4.13.317-5.05.941a3.319,3.319,0,0,0-1.41,2.937v1.291a4.122,4.122,0,0,0,.992,2.982,4.79,4.79,0,0,0,3.482,1.02h1.887a3.593,3.593,0,0,1,2.02.409,1.582,1.582,0,0,1,.531,1.349v2.085a1.385,1.385,0,0,1-.827,1.432,6.873,6.873,0,0,1-2.569.375,24.919,24.919,0,0,1-5.037-.618l-.156-.033v2.284l.112.015a38.013,38.013,0,0,0,4.933.4,8.518,8.518,0,0,0,4.64-1c1.01-.676,1.522-1.911,1.522-3.67v-1.167a4.094,4.094,0,0,0-.931-2.958C569.582,523.338,568.407,523.02,566.708,523.02Z" transform="translate(-559.602 -515.895)" fill="#01126c"/>
      <path id="Path_14" data-name="Path 14" d="M681.874,548.586a2.736,2.736,0,0,0-1.263-.719,7.186,7.186,0,0,0-1.5-.291c-.458-.033-1.092-.05-1.884-.05s-1.426.017-1.884.05a7.173,7.173,0,0,0-1.5.291,2.733,2.733,0,0,0-1.263.719,3.763,3.763,0,0,0-.722,1.311,6.309,6.309,0,0,0-.293,2.054v4.171a5.932,5.932,0,0,0,.37,2.285,2.442,2.442,0,0,0,1.256,1.3,5.661,5.661,0,0,0,1.7.5,21.084,21.084,0,0,0,2.336.1c.776,0,1.409-.017,1.883-.05a7.467,7.467,0,0,0,1.516-.278,2.865,2.865,0,0,0,1.26-.678,3.293,3.293,0,0,0,.726-1.24,5.832,5.832,0,0,0,.281-1.93v-4.171a6.317,6.317,0,0,0-.293-2.054A3.769,3.769,0,0,0,681.874,548.586Zm-4.651,9.988c-.641,0-1.129-.016-1.452-.049a3,3,0,0,1-.928-.25,1.03,1.03,0,0,1-.577-.61,3.644,3.644,0,0,1-.166-1.221v-4.866c0-1.054.2-1.71.607-1.949a8.54,8.54,0,0,1,5.032,0c.4.239.607.895.607,1.949v4.866a3.652,3.652,0,0,1-.166,1.221,1.031,1.031,0,0,1-.577.609,3,3,0,0,1-.928.25C678.352,558.557,677.863,558.574,677.223,558.574Z" transform="translate(-657.06 -543.586)" fill="#01126c"/>
      <path id="Path_15" data-name="Path 15" d="M796.832,548.565h0a5.262,5.262,0,0,0-3.6-1.039c-2.155,0-3.471.357-3.992,1.088v-.84h-2.469v17.438h2.493v-5.674a2.356,2.356,0,0,0,1.029.506,7.739,7.739,0,0,0,1.969.253c.659,0,1.231-.021,1.7-.063a7.349,7.349,0,0,0,1.517-.315,3.551,3.551,0,0,0,1.326-.71,3.414,3.414,0,0,0,.84-1.277,5.154,5.154,0,0,0,.332-1.935v-4.94A3.272,3.272,0,0,0,796.832,548.565Zm-4.543.833a5,5,0,0,1,2.487.439c.438.28.66.957.66,2.013v4.419c0,.957-.217,1.576-.646,1.838a5.173,5.173,0,0,1-2.477.415,4.946,4.946,0,0,1-2.426-.414c-.413-.262-.622-.881-.622-1.84v-4.419c0-1.075.2-1.757.6-2.028A4.744,4.744,0,0,1,792.289,549.4Z" transform="translate(-757.355 -543.774)" fill="#01126c"/>
      <path id="Path_16" data-name="Path 16" d="M910.706,548.565h0a5.261,5.261,0,0,0-3.6-1.039c-2.155,0-3.471.357-3.992,1.088v-.84h-2.468v17.438h2.493v-5.674a2.356,2.356,0,0,0,1.029.506,7.739,7.739,0,0,0,1.969.253c.659,0,1.231-.021,1.7-.063a7.346,7.346,0,0,0,1.517-.315,3.553,3.553,0,0,0,1.326-.71,3.415,3.415,0,0,0,.84-1.277,5.157,5.157,0,0,0,.332-1.935v-4.94A3.272,3.272,0,0,0,910.706,548.565Zm-4.543.833a5,5,0,0,1,2.487.439c.438.28.66.957.66,2.013v4.419c0,.957-.217,1.576-.646,1.838a5.173,5.173,0,0,1-2.477.415,4.946,4.946,0,0,1-2.426-.414c-.413-.262-.623-.881-.623-1.84v-4.419c0-1.075.2-1.757.6-2.028A4.743,4.743,0,0,1,906.163,549.4Z" transform="translate(-856.482 -543.774)" fill="#01126c"/>
      <rect id="Rectangle_6" data-name="Rectangle 6" width="2.493" height="2.593" transform="translate(58.91 0)" fill="#01126c"/>
      <rect id="Rectangle_7" data-name="Rectangle 7" width="2.493" height="12.275" transform="translate(58.91 4.187)" fill="#01126c"/>
      <path id="Path_17" data-name="Path 17" d="M1056.291,559.037l-3.279-9.593H1050.3l4.692,12.319-1.936,5.119h2.613l6.124-17.438h-2.538Z" transform="translate(-986.756 -545.444)" fill="#01126c"/>
      <path id="Path_18" data-name="Path 18" d="M1159.741,548.288c-.626-.512-1.936-.762-4-.762-1.321,0-2.821.075-4.455.224l-.117.011v1.9l.146-.019a32.185,32.185,0,0,1,4.1-.3,5.086,5.086,0,0,1,2.232.33,1.281,1.281,0,0,1,.543,1.228v1.782h-3.47c-1.753,0-2.909.258-3.534.788a3.632,3.632,0,0,0-.939,2.867c0,1.574.338,2.64,1,3.167a5.794,5.794,0,0,0,3.519.785c1.844,0,3-.307,3.495-.935v.687h2.419v-8.62C1160.682,549.834,1160.374,548.807,1159.741,548.288Zm-3.528,10.261c-.285.016-.646.025-1.073.025h-.447a2.09,2.09,0,0,1-1.624-.461,2.8,2.8,0,0,1-.381-1.694c0-1.126.189-1.558.348-1.722s.6-.358,1.831-.358h3.321v3.147a.751.751,0,0,1-.243.587,1.612,1.612,0,0,1-.77.341A6.817,6.817,0,0,1,1156.213,558.549Z" transform="translate(-1073.759 -543.586)" fill="#01126c"/>
    </g>
  </g>
</svg>
