<svg xmlns="http://www.w3.org/2000/svg" width="17.852" height="22.1" viewBox="0 0 17.852 22.1">
  <path id="Cart" d="M16.49,4.9a.7.7,0,0,0-.7-.645H13.308A4.445,4.445,0,0,0,8.882.125c-.069,0-.138,0-.207.005A4.416,4.416,0,0,0,4.453,4.259H1.959a.707.707,0,0,0-.7.645L0,19.046v.061a3.236,3.236,0,0,0,3.216,3.019c.059,0,.118,0,.178-.005H14.351c.061,0,.12.005.18.005a3.232,3.232,0,0,0,3.218-3.008.236.236,0,0,0,0-.08ZM5.146,8.122a.709.709,0,0,0,.709-.708V5.68h6.037V7.414a.708.708,0,0,0,1.417,0V5.68h1.828l1.2,13.433a1.832,1.832,0,0,1-1.967,1.59H3.385a1.825,1.825,0,0,1-1.968-1.569L2.609,5.68H4.438V7.414A.709.709,0,0,0,5.146,8.122Zm.717-3.863A3.04,3.04,0,0,1,8.875,1.413a3,3,0,0,1,3.013,2.846Z" transform="translate(0.05 -0.075)" fill="#95afc0" stroke="#95afc0" stroke-width="0.1"/>
</svg>
