<svg id="fi-rr-edit" xmlns="http://www.w3.org/2000/svg" width="18.002" height="18.002" viewBox="0 0 18.002 18.002">
  <path id="Path_1663" data-name="Path 1663" d="M15.243.709,6.1,9.854A3.725,3.725,0,0,0,5,12.506v1.007a.75.75,0,0,0,.75.75H6.757a3.725,3.725,0,0,0,2.652-1.1L18.554,4.02a2.344,2.344,0,0,0,0-3.311,2.4,2.4,0,0,0-3.311,0Zm2.25,2.25L8.348,12.1a2.265,2.265,0,0,1-1.591.659H6.5v-.257a2.265,2.265,0,0,1,.659-1.591L16.3,1.769a.861.861,0,0,1,1.19,0,.842.842,0,0,1,0,1.19Z" transform="translate(-1.25 -0.011)" fill="#2c2c2c"/>
  <path id="Path_1664" data-name="Path 1664" d="M17.252,6.735a.75.75,0,0,0-.75.75v3.766h-3a2.25,2.25,0,0,0-2.25,2.25v3H3.75a2.25,2.25,0,0,1-2.25-2.25V3.75A2.25,2.25,0,0,1,3.75,1.5h6.782a.75.75,0,1,0,0-1.5H3.75A3.755,3.755,0,0,0,0,3.75v10.5A3.755,3.755,0,0,0,3.75,18h8.508a3.726,3.726,0,0,0,2.652-1.1L16.9,14.91A3.726,3.726,0,0,0,18,12.259V7.485A.75.75,0,0,0,17.252,6.735Zm-3.4,9.108a2.232,2.232,0,0,1-1.1.6V13.5a.75.75,0,0,1,.75-.75h2.944a2.262,2.262,0,0,1-.6,1.1Z" fill="#2c2c2c"/>
</svg>
