<svg xmlns="http://www.w3.org/2000/svg" width="18" height="18" viewBox="0 0 18 18">
  <path id="fi-rr-building" d="M5.25,10.5a.75.75,0,0,1-.75.75H3.75a.75.75,0,0,1,0-1.5H4.5A.75.75,0,0,1,5.25,10.5Zm3-.75H7.5a.75.75,0,0,0,0,1.5h.75a.75.75,0,0,0,0-1.5Zm-3.75,3H3.75a.75.75,0,0,0,0,1.5H4.5a.75.75,0,0,0,0-1.5Zm3.75,0H7.5a.75.75,0,0,0,0,1.5h.75a.75.75,0,0,0,0-1.5Zm-3.75-9H3.75a.75.75,0,0,0,0,1.5H4.5a.75.75,0,0,0,0-1.5Zm3.75,0H7.5a.75.75,0,0,0,0,1.5h.75a.75.75,0,0,0,0-1.5Zm-3.75,3H3.75a.75.75,0,0,0,0,1.5H4.5a.75.75,0,0,0,0-1.5Zm3.75,0H7.5a.75.75,0,0,0,0,1.5h.75a.75.75,0,0,0,0-1.5ZM18,7.5v6.75A3.755,3.755,0,0,1,14.25,18H3.75A3.755,3.755,0,0,1,0,14.25V3.75A3.754,3.754,0,0,1,3.75,0h4.5A3.755,3.755,0,0,1,12,3.75h2.25A3.755,3.755,0,0,1,18,7.5Zm-14.25,9H10.5V3.75A2.25,2.25,0,0,0,8.25,1.5H3.75A2.25,2.25,0,0,0,1.5,3.75v10.5A2.25,2.25,0,0,0,3.75,16.5Zm12.75-9a2.25,2.25,0,0,0-2.25-2.25H12V16.5h2.25a2.25,2.25,0,0,0,2.25-2.25ZM14.25,9.75a.75.75,0,1,0,.75.75A.75.75,0,0,0,14.25,9.75Zm0,3a.75.75,0,1,0,.75.75A.75.75,0,0,0,14.25,12.75Zm0-6A.75.75,0,1,0,15,7.5.75.75,0,0,0,14.25,6.75Z"/>
</svg>
