<svg xmlns="http://www.w3.org/2000/svg" xmlns:xlink="http://www.w3.org/1999/xlink" width="90" height="90" viewBox="0 0 90 90">
  <defs>
    <clipPath id="clip-path">
      <circle id="Ellipse_10" data-name="Ellipse 10" cx="45" cy="45" r="45" fill="#fff"/>
    </clipPath>
  </defs>
  <g id="Profile_Pic" data-name="Profile Pic" transform="translate(-145 -135)">
    <circle id="Ellipse_11" data-name="Ellipse 11" cx="45" cy="45" r="45" transform="translate(145 135)" fill="#fff"/>
    <g id="Group_2" data-name="Group 2" transform="translate(145 135)" clip-path="url(#clip-path)">
      <circle id="Ellipse_12" data-name="Ellipse 12" cx="45" cy="45" r="45" fill="#fff"/>
      <path id="User_Icon" data-name="User Icon" d="M166.9,174.775c-.7-1.424-5.791-5.093-8.543-5.927a55.35,55.35,0,0,1-7.387-2.725L151,166.1l-.334-.5c.108-.1.13-.167.051-.188-.811-.2-2.137-7.691-2.137-7.691a.969.969,0,0,0-.011.138v-.138c-1.334-.312-2.585-.584-3.875-.822a42.328,42.328,0,0,1-.623-6.64,15.162,15.162,0,0,0,2.925-4.537,50.122,50.122,0,0,0,1.316-4.934,2.035,2.035,0,0,0,1.464-.726c.584-.725.731-5.368,1.168-6.672s.732-3.482-.732-3.336a1.546,1.546,0,0,0-.751.3,15.206,15.206,0,0,1,1.757-3.4s1.354-8.2,1.084-8.746,1.354-1.229-1.084-5.739-13.26-11.068-17.729-11.615-10.692,0-13.26,7.105c0,0-6.767,1.5-7.714,8.608s4.331,12.162,4.331,14.344v.027c-.288-.756-.6-1.363-.9-1.462-.879-.29-2.49-.29-2.2,3.192s.649.786,1.9,7.256c.732,3.772,2.05.87,2.05.87a33.047,33.047,0,0,0,4.161,10.31c.009,1.5.034,3.877.1,5.789q-1.873.355-3.748.834v.159a.645.645,0,0,0-.018-.089s-1.278,7.506-2.095,7.713c-.113.029-.022.148.229.334l-.944.716a7.7,7.7,0,0,1-1.359.824l-2.5,1.178-2.044.53a10.453,10.453,0,0,0-4.615,2.577l-4.2,4.029h66.606S167.3,175.592,166.9,174.775Z" transform="translate(-88.67 -85.439)" fill="#2c2c2c" opacity="0.5"/>
    </g>
  </g>
</svg>
