<svg xmlns="http://www.w3.org/2000/svg" width="20" height="19.988" viewBox="0 0 20 19.988">
  <g id="Home" transform="translate(0 -0.021)" fill="none">
    <path d="M19.267,7.561,12.947,1.239a4.173,4.173,0,0,0-5.893,0L.732,7.561A2.482,2.482,0,0,0,0,9.329v8.181a2.5,2.5,0,0,0,2.5,2.5h15a2.5,2.5,0,0,0,2.5-2.5V9.329A2.482,2.482,0,0,0,19.267,7.561ZM12.5,18.343h-5V15.064a2.5,2.5,0,1,1,5,0Zm5.833-.833a.833.833,0,0,1-.833.833H14.167V15.064a4.167,4.167,0,1,0-8.333,0v3.278H2.5a.833.833,0,0,1-.833-.833V9.329a.84.84,0,0,1,.244-.589L8.232,2.42a2.507,2.507,0,0,1,3.537,0l6.321,6.322a.84.84,0,0,1,.244.587Z" stroke="none"/>
    <path d="M 9.999983787536621 0.02136802673339844 C 11.06611824035645 0.02136802673339844 12.13225269317627 0.4273757934570313 12.94665336608887 1.239391326904297 L 19.26748275756836 7.561051368713379 C 19.73806190490723 8.028631210327148 20.00185203552246 8.6651611328125 19.9999828338623 9.328551292419434 L 19.9999828338623 17.50937080383301 C 19.9999828338623 18.89009094238281 18.88068199157715 20.00937080383301 17.4999828338623 20.00937080383301 L 2.499992370605469 20.00937080383301 C 1.119283676147461 20.00937080383301 -7.62939453125e-06 18.89009094238281 -7.62939453125e-06 17.50937080383301 L -7.62939453125e-06 9.328551292419434 C -0.001897811889648438 8.6651611328125 0.2619037628173828 8.028631210327148 0.7324924468994141 7.561051368713379 L 7.053322792053223 1.239391326904297 C 7.867717742919922 0.4273757934570313 8.933850288391113 0.02136802673339844 9.999983787536621 0.02136802673339844 Z M 17.4999828338623 18.34271049499512 C 17.9602222442627 18.34271049499512 18.33330345153809 17.96961212158203 18.33330345153809 17.50937080383301 L 18.33330345153809 9.328551292419434 C 18.33188247680664 9.10857105255127 18.24421310424805 8.897921562194824 18.08914184570313 8.741881370544434 L 11.76831245422363 2.420230865478516 C 11.27933311462402 1.933530807495117 10.63965797424316 1.690181732177734 9.999982833862305 1.690181732177734 C 9.360307693481445 1.690181732177734 8.720632553100586 1.933530807495117 8.231653213500977 2.420230865478516 L 1.910833358764648 8.739380836486816 C 1.755153656005859 8.896040916442871 1.66743278503418 9.107701301574707 1.666662216186523 9.328551292419434 L 1.666662216186523 17.50937080383301 C 1.666662216186523 17.96961212158203 2.039762496948242 18.34271049499512 2.499992370605469 18.34271049499512 L 5.833322525024414 18.34271049499512 L 5.833322525024414 15.06438064575195 C 5.833322525024414 12.76319122314453 7.698802947998047 10.89772129058838 9.999982833862305 10.89772129058838 C 12.30116271972656 10.89772129058838 14.1666431427002 12.76319122314453 14.1666431427002 15.06438064575195 L 14.1666431427002 18.34271049499512 L 17.4999828338623 18.34271049499512 Z M 12.4999828338623 18.34271049499512 L 12.4999828338623 15.06438064575195 C 12.4999828338623 13.68367195129395 11.38069248199463 12.56438064575195 9.999982833862305 12.56438064575195 C 8.61927318572998 12.56438064575195 7.499992370605469 13.68367195129395 7.499992370605469 15.06438064575195 L 7.499992370605469 18.34271049499512 L 12.4999828338623 18.34271049499512 Z" stroke="none" fill="#95afc0"/>
  </g>
</svg>
