<svg xmlns="http://www.w3.org/2000/svg" width="15" height="20" viewBox="0 0 15 20">
  <g id="Account" transform="translate(-3)">
    <path id="Path_1652" data-name="Path 1652" d="M10.994,10.024A5.012,5.012,0,1,0,6,5.012a5,5,0,0,0,4.994,5.012Zm0-8.353A3.341,3.341,0,1,1,7.665,5.012a3.335,3.335,0,0,1,3.329-3.341Z" transform="translate(-0.494)" fill="#2c2c2c"/>
    <path id="Path_1653" data-name="Path 1653" d="M10.5,14A7.517,7.517,0,0,0,3,21.518a.833.833,0,1,0,1.667,0,5.833,5.833,0,1,1,11.667,0,.833.833,0,1,0,1.667,0A7.517,7.517,0,0,0,10.5,14Z" transform="translate(0 -2.353)" fill="#2c2c2c"/>
  </g>
</svg>
